{
  "accessors": [
    {
      "bufferView": 2,
      "componentType": 5126,
      "count": 3284,
      "max": [
        0.7655349969863892,
        4.611215591430664,
        1.512681007385254
      ],
      "min": [
        -0.7655349969863892,
        0.012069225311279297,
        -1.512681007385254
      ],
      "type": "VEC3"
    },
    {
      "bufferView": 2,
      "byteOffset": 39408,
      "componentType": 5126,
      "count": 3284,
      "max": [
        0.9999998211860657,
        1.0,
        1.0
      ],
      "min": [
        -0.9999998211860657,
        -1.0,
        -1.0
      ],
      "type": "VEC3"
    },
    {
      "bufferView": 3,
      "componentType": 5126,
      "count": 3284,
      "max": [
        1.0,
        0.9991230964660645,
        1.0,
        1.0
      ],
      "min": [
        -0.9999798536300659,
        -0.9991231560707092,
        -1.0,
        -1.0
      ],
      "type": "VEC4"
    },
    {
      "bufferView": 1,
      "componentType": 5126,
      "count": 3284,
      "max": [
        0.9782389998435974,
        0.9980080127716064
      ],
      "min": [
        0.00190100003965199,
        0.018958985805511475
      ],
      "type": "VEC2"
    },
    {
      "bufferView": 1,
      "byteOffset": 26272,
      "componentType": 5126,
      "count": 3284,
      "max": [
        0.9782389998435974,
        0.9980080127716064
      ],
      "min": [
        0.00190100003965199,
        0.018958985805511475
      ],
      "type": "VEC2"
    },
    {
      "bufferView": 1,
      "byteOffset": 52544,
      "componentType": 5126,
      "count": 3284,
      "max": [
        0.9782389998435974,
        0.9980080127716064
      ],
      "min": [
        0.00190100003965199,
        0.018958985805511475
      ],
      "type": "VEC2"
    },
    {
      "bufferView": 1,
      "byteOffset": 78816,
      "componentType": 5126,
      "count": 3284,
      "max": [
        0.9782389998435974,
        0.9980080127716064
      ],
      "min": [
        0.00190100003965199,
        0.018958985805511475
      ],
      "type": "VEC2"
    },
    {
      "bufferView": 1,
      "byteOffset": 105088,
      "componentType": 5126,
      "count": 3284,
      "max": [
        0.9782389998435974,
        0.9980080127716064
      ],
      "min": [
        0.00190100003965199,
        0.018958985805511475
      ],
      "type": "VEC2"
    },
    {
      "bufferView": 0,
      "componentType": 5125,
      "count": 16776,
      "type": "SCALAR"
    }
  ],
  "asset": {
    "extras": {
      "author": "varun pal (https://sketchfab.com/lovepal123456789)",
      "license": "CC-BY-4.0 (http://creativecommons.org/licenses/by/4.0/)",
      "source": "https://sketchfab.com/3d-models/shopping--bag-hm-236d4df1e0304c7ead5080bb6999a0f6",
      "title": "Shopping _bag H&M"
    },
    "generator": "Sketchfab-12.65.0",
    "version": "2.0"
  },
  "bufferViews": [
    {
      "buffer": 0,
      "byteLength": 67104,
      "name": "floatBufferViews",
      "target": 34963
    },
    {
      "buffer": 0,
      "byteLength": 131360,
      "byteOffset": 67104,
      "byteStride": 8,
      "name": "floatBufferViews",
      "target": 34962
    },
    {
      "buffer": 0,
      "byteLength": 78816,
      "byteOffset": 198464,
      "byteStride": 12,
      "name": "floatBufferViews",
      "target": 34962
    },
    {
      "buffer": 0,
      "byteLength": 52544,
      "byteOffset": 277280,
      "byteStride": 16,
      "name": "floatBufferViews",
      "target": 34962
    }
  ],
  "buffers": [
    {
      "byteLength": 329824,
      "uri": "scene.bin"
    }
  ],
  "images": [
    {
      "uri": "textures/initialShadingGroup_baseColor.png"
    },
    {
      "uri": "textures/initialShadingGroup_metallicRoughness.png"
    },
    {
      "uri": "textures/initialShadingGroup_normal.png"
    }
  ],
  "materials": [
    {
      "name": "initialShadingGroup",
      "normalTexture": {
        "index": 2
      },
      "occlusionTexture": {
        "index": 1
      },
      "pbrMetallicRoughness": {
        "baseColorTexture": {
          "index": 0
        },
        "metallicRoughnessTexture": {
          "index": 1
        }
      }
    }
  ],
  "meshes": [
    {
      "name": "Object_0",
      "primitives": [
        {
          "attributes": {
            "NORMAL": 1,
            "POSITION": 0,
            "TANGENT": 2,
            "TEXCOORD_0": 3,
            "TEXCOORD_1": 4,
            "TEXCOORD_2": 5,
            "TEXCOORD_3": 6,
            "TEXCOORD_4": 7
          },
          "indices": 8,
          "material": 0,
          "mode": 4
        }
      ]
    }
  ],
  "nodes": [
    {
      "children": [
        1
      ],
      "matrix": [
        1.0,
        0.0,
        0.0,
        0.0,
        0.0,
        2.220446049250313e-16,
        -1.0,
        0.0,
        0.0,
        1.0,
        2.220446049250313e-16,
        0.0,
        0.0,
        0.0,
        0.0,
        1.0
      ],
      "name": "Sketchfab_model"
    },
    {
      "children": [
        2
      ],
      "name": "root"
    },
    {
      "children": [
        3
      ],
      "matrix": [
        1.0,
        0.0,
        0.0,
        0.0,
        0.0,
        2.220446049250313e-16,
        1.0,
        0.0,
        0.0,
        -1.0,
        2.220446049250313e-16,
        0.0,
        0.0,
        0.0,
        0.0,
        1.0
      ],
      "name": "GLTF_SceneRootNode"
    },
    {
      "children": [
        4
      ],
      "name": "shoping_bag.obj_0"
    },
    {
      "children": [
        5
      ],
      "name": "group3_polySurface2_1"
    },
    {
      "children": [
        6
      ],
      "name": "group3_polySurface2_2"
    },
    {
      "mesh": 0,
      "name": "Object_6"
    }
  ],
  "samplers": [
    {
      "magFilter": 9729,
      "minFilter": 9987,
      "wrapS": 10497,
      "wrapT": 10497
    }
  ],
  "scene": 0,
  "scenes": [
    {
      "name": "Sketchfab_Scene",
      "nodes": [
        0
      ]
    }
  ],
  "textures": [
    {
      "sampler": 0,
      "source": 0
    },
    {
      "sampler": 0,
      "source": 1
    },
    {
      "sampler": 0,
      "source": 2
    }
  ]
}
